<svg xmlns="http://www.w3.org/2000/svg" viewBox="0 0 300 300" xml:space="preserve"><path d="m113.467 193.855 1.173-1.174a5.177 5.177 0 1 0-7.323-7.321l-1.172 1.173a5.177 5.177 0 1 0 7.322 7.322zM125.779 181.542l57.326-57.326a5.175 5.175 0 0 0 0-7.322 5.18 5.18 0 0 0-7.322 0l-57.326 57.328a5.177 5.177 0 1 0 7.322 7.32z"/><path d="M241.488 217.991a5.178 5.178 0 0 0-10.039 2.541l3.703 14.619-36.28-9.189-41.55-41.553 9.884-9.882 19.327 19.327a5.157 5.157 0 0 0 3.661 1.516 5.18 5.18 0 0 0 3.662-8.838l-19.328-19.326 9.882-9.885 38.899 38.898-17.331 17.33a5.177 5.177 0 1 0 7.323 7.322l20.992-20.992a5.177 5.177 0 0 0 0-7.32l-42.559-42.561 54.233-54.232a5.175 5.175 0 0 0 0-7.322l-34.411-34.411a5.178 5.178 0 0 0-7.323 0L150 108.266 95.767 54.033a5.177 5.177 0 0 0-7.322 0L54.034 88.445a5.175 5.175 0 0 0 0 7.322l54.232 54.232-42.559 42.561a5.174 5.174 0 0 0 0 7.32l18.953 18.951a5.174 5.174 0 0 0 7.322 0 5.174 5.174 0 0 0 0-7.318L76.69 196.22 185.469 87.44l27.091 27.09-111.434 111.432-36.279 9.189 5.161-20.373a5.176 5.176 0 0 0-3.748-6.289 5.177 5.177 0 0 0-6.29 3.747l-7.294 28.797a5.176 5.176 0 0 0 1.358 4.933 5.183 5.183 0 0 0 3.661 1.518c.424 0 .851-.053 1.271-.16l46.085-11.673a5.19 5.19 0 0 0 2.391-1.358L150 191.734l42.559 42.559a5.182 5.182 0 0 0 2.39 1.358l46.085 11.673a5.16 5.16 0 0 0 4.933-1.358 5.176 5.176 0 0 0 1.358-4.933l-5.837-23.042zM92.106 65.016l15.103 15.102-27.09 27.089-15.103-15.101 27.09-27.09zm-4.665 49.513 27.089-27.09 28.147 28.147-9.883 9.885-8.578-8.578a5.177 5.177 0 1 0-7.322 7.322l8.577 8.578-9.884 9.883-28.146-28.147zm105.351-34.411 15.102-15.102 27.089 27.089-15.102 15.102-27.089-27.089z"/></svg>